<svg id="Capa_1" enable-background="new 0 0 512 512" height="512" viewBox="0 0 512 512" width="512" xmlns="http://www.w3.org/2000/svg"><g><path d="m170.834 304.223c8.917 0 17.542 3.251 24.287 9.154 4.429 3.877 10.715 4.804 16.076 2.373 5.36-2.432 8.803-7.774 8.803-13.66v-113.365c0-7.145-5.04-13.3-12.047-14.706-24.549-4.93-50.287-4.887-74.744.097-6.986 1.424-12.005 7.568-12.005 14.698v25.518c-1.667.654-3.32 1.34-4.959 2.059l-18.049-18.049c-5.043-5.043-12.94-5.838-18.886-1.901-10.495 6.946-20.344 14.996-29.277 23.928-8.943 8.944-16.994 18.795-23.928 29.278-3.933 5.947-3.137 13.84 1.904 18.882l18.048 18.048c-.719 1.641-1.406 3.294-2.06 4.962h-25.517c-7.13 0-13.275 5.02-14.698 12.006-2.509 12.318-3.782 24.977-3.782 37.623s1.273 25.304 3.782 37.623c1.423 6.986 7.568 12.006 14.698 12.006h25.517c.654 1.668 1.341 3.323 2.059 4.962l-18.044 18.045c-5.041 5.041-5.838 12.935-1.905 18.881 6.935 10.485 14.986 20.336 23.931 29.281 8.941 8.94 18.791 16.99 29.277 23.927 5.947 3.934 13.841 3.139 18.883-1.903l18.045-18.045c1.64.72 3.294 1.406 4.962 2.06v25.514c0 7.131 5.02 13.275 12.007 14.698 12.33 2.511 24.988 3.784 37.622 3.784h.002c12.463-.002 37.119 0 37.119 0s12.045-11.251 12.045-18.396v-113.36c0-5.886-3.443-11.228-8.803-13.659-5.361-2.433-11.648-1.505-16.076 2.373-6.744 5.902-15.369 9.153-24.287 9.153-20.372 0-36.945-16.573-36.945-36.944 0-20.372 16.573-36.945 36.945-36.945z" fill="#8dc2eb"/><path d="m211.197 366.586c-5.361-2.433-11.648-1.505-16.076 2.373-6.744 5.902-15.369 9.153-24.287 9.153-20.372 0-36.945-16.573-36.945-36.944h-133.889c0 12.646 1.273 25.304 3.782 37.623 1.423 6.986 7.568 12.006 14.698 12.006h25.517c.654 1.668 1.341 3.323 2.059 4.962l-18.044 18.045c-5.041 5.041-5.838 12.935-1.905 18.881 6.935 10.485 14.986 20.336 23.931 29.281 8.941 8.94 18.791 16.99 29.277 23.927 5.947 3.934 13.841 3.139 18.883-1.903l18.045-18.045c1.64.72 3.294 1.406 4.962 2.06v25.514c0 7.131 5.02 13.275 12.007 14.698 12.33 2.511 24.988 3.784 37.622 3.784h.002c12.463-.002 37.119 0 37.119 0s12.045-11.251 12.045-18.396v-113.36c0-5.886-3.443-11.228-8.803-13.659z" fill="#5e9ff6"/><path d="m497 0h-292c-8.284 0-15 6.716-15 15v482c0 8.284 6.716 15 15 15h292c8.284 0 15-6.716 15-15v-482c0-8.284-6.716-15-15-15z" fill="#00dd80"/><path d="m190 256v241c0 8.284 6.716 15 15 15h292c8.284 0 15-6.716 15-15v-241z" fill="#00aa95"/><path d="m305 439c-8.284 0-15-6.716-15-15v-336c0-8.284 6.716-15 15-15s15 6.716 15 15v336c0 8.284-6.716 15-15 15z" fill="#00aa95"/><path d="m290 256v168c0 8.284 6.716 15 15 15s15-6.716 15-15v-168z" fill="#007579"/><path d="m401 439c-8.284 0-15-6.716-15-15v-336c0-8.284 6.716-15 15-15s15 6.716 15 15v336c0 8.284-6.716 15-15 15z" fill="#00aa95"/><path d="m386 256v168c0 8.284 6.716 15 15 15s15-6.716 15-15v-168z" fill="#007579"/><circle cx="305" cy="174" fill="#ffe470" r="47"/><circle cx="401" cy="338" fill="#fabe2c" r="47"/></g></svg>