<svg id="Capa_1" enable-background="new 0 0 512 512" height="512" viewBox="0 0 512 512" width="512" xmlns="http://www.w3.org/2000/svg"><g><g><g><path d="m252.865 155.112-84.027-84.027c-4.152-4.152-10.884-4.152-15.036 0l-84.027 84.027c-6.698 6.698-1.954 18.15 7.518 18.15h29.986v133.817c0 5.872 4.76 10.632 10.632 10.632h86.818c5.872 0 10.632-4.76 10.632-10.632v-128.666c0-2.845 2.306-5.151 5.151-5.151h24.835c9.472 0 14.215-11.452 7.518-18.15z" fill="#17998c"/><path d="m245.351 173.257h-24.837c-2.845 0-5.151 2.306-5.151 5.151v128.669c0 5.872-4.76 10.631-10.631 10.631h-35.521c5.872 0 10.631-4.759 10.631-10.631v-123.518c0-5.689 4.612-10.302 10.302-10.302h19.676c9.478 0 14.216-11.445 7.52-18.141l-73.78-73.791 10.24-10.24c4.152-4.152 10.889-4.152 15.041 0l84.021 84.032c6.695 6.695 1.957 18.14-7.511 18.14z" fill="#138b80"/></g></g><g><g><g><path d="m488.3 227.063-84.027-84.027c-4.152-4.152-10.884-4.152-15.036 0l-84.027 84.027c-6.698 6.698-1.954 18.15 7.518 18.15h29.986v236.834c0 5.872 4.76 10.632 10.632 10.632h86.818c5.872 0 10.632-4.76 10.632-10.632v-231.683c0-2.845 2.306-5.151 5.151-5.151h24.835c9.472 0 14.216-11.452 7.518-18.15z" fill="#17998c"/><path d="m480.777 245.215h-24.827c-2.845 0-5.151 2.306-5.151 5.151v231.676c0 5.872-4.76 10.631-10.631 10.631h-35.52c5.872 0 10.631-4.759 10.631-10.631v-226.525c0-5.689 4.612-10.302 10.302-10.302h19.676c9.478 0 14.216-11.456 7.52-18.152l-73.781-73.791 10.24-10.24c4.152-4.152 10.889-4.152 15.041 0l84.021 84.031c6.696 6.697 1.957 18.152-7.521 18.152z" fill="#138b80"/></g></g><g><g><path d="m206.79 252.817-84.027-84.027c-4.152-4.152-10.884-4.152-15.036 0l-84.027 84.027c-6.698 6.698-1.954 18.15 7.518 18.15h24.835c2.845 0 5.151 2.306 5.151 5.151v205.929c0 5.872 4.76 10.632 10.632 10.632h86.818c5.872 0 10.632-4.76 10.632-10.632v-211.08h29.986c9.472 0 14.216-11.452 7.518-18.15z" fill="#23f1a8"/><path d="m199.272 270.97h-29.988v211.073c0 5.872-4.76 10.631-10.631 10.631h-35.52c5.872 0 10.631-4.759 10.631-10.631v-200.771c0-5.69 4.612-10.302 10.302-10.302h19.687c9.474 0 14.218-11.454 7.519-18.153l-73.78-73.78 10.24-10.25c4.152-4.152 10.879-4.152 15.03 0l84.03 84.03c6.698 6.699 1.953 18.153-7.52 18.153z" fill="#26d192"/></g></g></g><g><g><g><path d="m428.647 87.144-84.027-84.027c-4.152-4.152-10.884-4.152-15.036 0l-84.027 84.027c-6.698 6.698-1.954 18.15 7.518 18.15h24.835c2.845 0 5.151 2.306 5.151 5.151v231.684c0 5.872 4.76 10.632 10.632 10.632h86.818c5.872 0 10.632-4.76 10.632-10.632v-231.685c0-2.845 2.306-5.151 5.151-5.151h24.835c9.473 0 14.216-11.452 7.518-18.149z" fill="#23f1a8"/><path d="m421.132 105.297h-24.839c-2.845 0-5.151 2.306-5.151 5.151v231.676c0 5.872-4.76 10.631-10.631 10.631h-35.521c5.872 0 10.631-4.759 10.631-10.631v-226.525c0-5.689 4.612-10.302 10.302-10.302h19.687c9.474 0 14.218-11.454 7.519-18.153l-73.78-73.78 10.24-10.25c4.152-4.152 10.879-4.152 15.03 0l84.031 84.032c6.699 6.698 1.955 18.151-7.518 18.151z" fill="#26d192"/></g></g><g><circle cx="248.119" cy="362.782" fill="#ffd496" r="149.218"/><path d="m397.339 362.779c0 82.41-66.81 149.221-149.22 149.221-4.28 0-8.525-.185-12.708-.536 76.46-6.451 136.495-70.554 136.495-148.684s-60.034-142.225-136.495-148.676c4.183-.352 8.428-.536 12.708-.536 82.41 0 149.22 66.801 149.22 149.211z" fill="#fcc16d"/><circle cx="248.119" cy="362.782" fill="#17998c" r="117.032"/><path d="m365.149 362.78c0 64.634-52.396 117.038-117.03 117.038-5.309 0-10.536-.357-15.654-1.039 57.231-7.652 101.368-56.675 101.368-116s-44.137-108.339-101.368-115.991c5.118-.681 10.344-1.039 15.654-1.039 64.634.001 117.03 52.396 117.03 117.031z" fill="#138b80"/><circle cx="248.119" cy="362.782" fill="#23f1a8" r="78.528"/><path d="m326.651 362.78c0 43.369-35.163 78.532-78.532 78.532-11.545 0-22.513-2.489-32.385-6.975 3.687.586 7.476.884 11.324.884 40.005 0 72.432-32.436 72.432-72.441s-32.427-72.432-72.432-72.432c-3.857 0-7.654.306-11.35.884 9.88-4.477 20.856-6.975 32.41-6.975 43.37-.001 78.533 35.153 78.533 78.523z" fill="#26d192"/><path d="m283.486 379.031c0-20.715-18.777-25.629-32.486-29.217-12.815-3.354-17.364-5.314-17.364-9.64 0-5.107 6.768-9.586 14.483-9.586s14.484 4.479 14.484 9.586c0 4.267 3.459 7.726 7.726 7.726s7.726-3.459 7.726-7.726c0-11.572-9.437-21.332-22.21-24.189v-6.245c0-4.267-3.459-7.726-7.726-7.726s-7.726 3.459-7.726 7.726v6.245c-12.773 2.857-22.209 12.617-22.209 24.189 0 17.025 16.706 21.397 28.904 24.59 15.715 4.113 20.946 6.751 20.946 14.268 0 7.49-9.12 13.819-19.914 13.819s-19.913-6.328-19.913-13.819c0-4.267-3.459-7.726-7.726-7.726-4.268 0-7.726 3.459-7.726 7.726 0 13.943 11.844 25.633 27.64 28.56v6.108c0 4.267 3.459 7.726 7.726 7.726s7.726-3.459 7.726-7.726v-6.108c15.795-2.928 27.639-14.618 27.639-28.561z" fill="#19bf7c"/></g></g></g></svg>