<?xml version="1.0" encoding="iso-8859-1"?>
<!-- Generator: Adobe Illustrator 19.0.0, SVG Export Plug-In . SVG Version: 6.00 Build 0)  -->
<svg version="1.1" id="Capa_1" xmlns="http://www.w3.org/2000/svg" xmlns:xlink="http://www.w3.org/1999/xlink" x="0px" y="0px"
	 viewBox="0 0 512 512" style="enable-background:new 0 0 512 512;" xml:space="preserve">
<path style="fill:#53433F;" d="M107.509,152.509c-3.838,0-7.676-1.465-10.605-4.395l-42.422-42.422
	c-5.859-5.859-5.859-15.352,0-21.211s15.352-5.859,21.211,0l42.422,42.422c5.859,5.859,5.859,15.352,0,21.211
	C115.185,151.044,111.347,152.509,107.509,152.509z"/>
<path style="fill:#3E322E;" d="M404.491,152.509c-3.838,0-7.676-1.465-10.605-4.395c-5.859-5.859-5.859-15.352,0-21.211
	l42.422-42.422c5.859-5.859,15.352-5.859,21.211,0s5.859,15.352,0,21.211l-42.422,42.422
	C412.167,151.044,408.329,152.509,404.491,152.509z"/>
<path style="fill:#53433F;" d="M271,15v61c0,8.399-6.599,15-15,15s-15-6.601-15-15V15c0-8.401,6.599-15,15-15S271,6.599,271,15z"/>
<path style="fill:#3E322E;" d="M256,91V0c8.401,0,15,6.599,15,15v61C271,84.399,264.401,91,256,91z"/>
<path style="fill:#3AAAFF;" d="M256,61C131.8,61,31,161.8,31,286s100.8,226,225,226s225-101.8,225-226S380.2,61,256,61z"/>
<path style="fill:#008ADF;" d="M481,286c0,124.2-100.8,226-225,226V61C380.2,61,481,161.8,481,286z"/>
<path style="fill:#EDE9E8;" d="M256,121c-90.901,0-165,74.099-165,165c0,90.899,74.099,166,165,166s165-75.101,165-166
	C421,195.099,346.901,121,256,121z"/>
<path style="fill:#DFD7D5;" d="M421,286c0,90.899-74.099,166-165,166V121C346.901,121,421,195.099,421,286z"/>
<g>
	<path style="fill:#68544F;" d="M331,15c0,8.399-6.599,15-15,15H196c-8.401,0-15-6.601-15-15c0-8.401,6.599-15,15-15h120
		C324.401,0,331,6.599,331,15z"/>
	<path style="fill:#68544F;" d="M33.256,126.903c-5.859-5.859-5.859-15.352,0-21.211l42.437-42.437
		c5.859-5.859,15.352-5.859,21.211,0s5.859,15.352,0,21.211l-42.437,42.437C48.608,132.763,39.115,132.763,33.256,126.903z"/>
</g>
<path style="fill:#53433F;" d="M457.533,126.903l-42.437-42.437c-5.859-5.859-5.859-15.352,0-21.211s15.352-5.859,21.211,0
	l42.437,42.437c5.859,5.859,5.859,15.352,0,21.211C472.885,132.763,463.393,132.763,457.533,126.903z"/>
<g>
	<path style="fill:#77DD00;" d="M299.801,277.299l-43.801,30l-43.801-30c-7.5-28.799,0.601-59.399,21.601-80.4l11.7-11.4
		C248.2,182.5,252.1,181,256,181s7.8,1.5,10.499,4.499l11.7,11.4C299.2,217.899,307.301,248.5,299.801,277.299z"/>
	<path style="fill:#77DD00;" d="M271,346v30c0,8.399-6.599,15-15,15s-15-6.601-15-15v-30c0-8.401,6.599-15,15-15
		S271,337.599,271,346z"/>
</g>
<path style="fill:#53433F;" d="M316,30h-60V0h60c8.401,0,15,6.599,15,15C331,23.399,324.401,30,316,30z"/>
<g>
	<path style="fill:#00CC71;" d="M299.801,277.299l-43.801,30V181c3.9,0,7.8,1.5,10.499,4.499l11.7,11.4
		C299.2,217.899,307.301,248.5,299.801,277.299z"/>
	<path style="fill:#00CC71;" d="M271,346v30c0,8.399-6.599,15-15,15v-60C264.401,331,271,337.599,271,346z"/>
</g>
<path style="fill:#89F900;" d="M340.901,246.099h-16.5c-28.2,0-53.401,14.399-68.401,36c-15-21.601-40.201-36-68.401-36h-16.5
	c-8.099,0-15,6.899-15,15v16.5c0,45.901,37.5,83.401,83.701,83.401h32.399c46.201,0,83.701-37.5,83.701-83.401v-16.5
	C355.901,252.999,348.999,246.099,340.901,246.099z"/>
<path style="fill:#77DD00;" d="M355.901,261.099v16.5c0,45.901-37.5,83.401-83.701,83.401H256v-78.9c15-21.601,40.201-36,68.401-36
	h16.5C348.999,246.099,355.901,252.999,355.901,261.099z"/>
<g>
</g>
<g>
</g>
<g>
</g>
<g>
</g>
<g>
</g>
<g>
</g>
<g>
</g>
<g>
</g>
<g>
</g>
<g>
</g>
<g>
</g>
<g>
</g>
<g>
</g>
<g>
</g>
<g>
</g>
</svg>
